<svg width="283" height="33" viewBox="0 0 283 33" fill="none" xmlns="http://www.w3.org/2000/svg">
  <path d="M5.09003 31.878C3.83003 31.878 3.20003 31.528 3.20003 30.828V13.398H1.77203C1.43603 13.398 1.18403 13.286 1.01603 13.062C0.87603 12.81 0.80603 12.418 0.80603 11.886V11.34C0.80603 10.808 0.87603 10.43 1.01603 10.206C1.18403 9.954 1.43603 9.828 1.77203 9.828H3.20003V6.09C3.20003 3.85 3.73203 2.282 4.79603 1.386C5.88803 0.462 7.23203 0 8.82803 0C11.068 0 12.188 0.49 12.188 1.47C12.188 1.778 12.09 2.24 11.894 2.856C11.698 3.472 11.46 3.78 11.18 3.78C11.04 3.78 10.83 3.752 10.55 3.696C10.27 3.612 9.93403 3.57 9.54203 3.57C8.87003 3.57 8.35203 3.752 7.98803 4.116C7.65203 4.48 7.48403 5.208 7.48403 6.3V9.828H10.676C11.012 9.828 11.25 9.954 11.39 10.206C11.558 10.43 11.642 10.808 11.642 11.34V11.886C11.642 12.418 11.558 12.81 11.39 13.062C11.25 13.286 11.012 13.398 10.676 13.398H7.48403V30.828C7.48403 31.528 6.84003 31.878 5.55203 31.878H5.09003Z" fill="#348CBE"/>
  <path d="M22.2762 32.088C20.1482 32.088 18.4962 31.5 17.3202 30.324C16.1722 29.12 15.5982 27.44 15.5982 25.284V10.794C15.5982 10.094 16.2422 9.744 17.5302 9.744H17.9922C19.2802 9.744 19.9242 10.094 19.9242 10.794V24.78C19.9242 25.928 20.2462 26.824 20.8902 27.468C21.5342 28.084 22.4722 28.392 23.7042 28.392C24.6002 28.392 25.4682 28.14 26.3082 27.636C27.1482 27.104 27.8482 26.432 28.4082 25.62V10.794C28.4082 10.094 29.0522 9.744 30.3402 9.744H30.8022C32.0902 9.744 32.7342 10.094 32.7342 10.794V25.242C32.7342 27.118 32.8182 28.476 32.9862 29.316C33.1542 30.156 33.2382 30.632 33.2382 30.744C33.2382 31.136 32.8882 31.416 32.1882 31.584C31.4882 31.752 30.8442 31.836 30.2562 31.836C29.8362 31.836 29.5282 31.626 29.3322 31.206C29.1642 30.786 29.0242 30.338 28.9122 29.862C28.8282 29.386 28.7722 29.064 28.7442 28.896C27.9322 29.876 26.9522 30.66 25.8042 31.248C24.6562 31.808 23.4802 32.088 22.2762 32.088Z" fill="#348CBE"/>
  <path d="M41.2871 31.878C39.9991 31.878 39.3551 31.528 39.3551 30.828V16.506C39.3551 14.658 39.2711 13.314 39.1031 12.474C38.9351 11.634 38.8511 11.158 38.8511 11.046C38.8511 10.654 39.2011 10.374 39.9011 10.206C40.6011 10.038 41.2451 9.954 41.8331 9.954C42.2531 9.954 42.5471 10.15 42.7151 10.542C42.9111 10.934 43.0511 11.354 43.1351 11.802C43.2471 12.25 43.3171 12.558 43.3451 12.726C44.1851 11.746 45.1791 10.976 46.3271 10.416C47.4751 9.828 48.6371 9.534 49.8131 9.534C51.9411 9.534 53.5791 10.136 54.7271 11.34C55.9031 12.516 56.4911 14.182 56.4911 16.338V30.828C56.4911 31.528 55.8471 31.878 54.5591 31.878H54.0971C52.8091 31.878 52.1651 31.528 52.1651 30.828V16.842C52.1651 15.694 51.8431 14.812 51.1991 14.196C50.5551 13.552 49.6171 13.23 48.3851 13.23C47.4891 13.23 46.6211 13.496 45.7811 14.028C44.9411 14.532 44.2411 15.19 43.6811 16.002V30.828C43.6811 31.528 43.0371 31.878 41.7491 31.878H41.2871Z" fill="#348CBE"/>
  <path d="M71.89 32.088C68.362 32.088 65.744 31.192 64.036 29.4C62.328 27.58 61.474 24.71 61.474 20.79C61.474 16.842 62.398 13.986 64.246 12.222C66.122 10.43 68.6 9.534 71.68 9.534C73.304 9.534 74.788 9.758 76.132 10.206C77.5041 10.626 78.19 11.144 78.19 11.76C78.19 12.152 77.994 12.684 77.6021 13.356C77.2101 14 76.86 14.322 76.552 14.322C76.524 14.322 76.342 14.252 76.006 14.112C75.362 13.832 74.704 13.594 74.032 13.398C73.388 13.202 72.618 13.104 71.722 13.104C69.846 13.104 68.4181 13.72 67.438 14.952C66.486 16.156 66.01 18.06 66.01 20.664C66.01 23.408 66.458 25.41 67.354 26.67C68.2781 27.902 69.804 28.518 71.932 28.518C72.912 28.518 73.7521 28.42 74.452 28.224C75.18 28 75.8661 27.734 76.51 27.426C76.846 27.314 77.028 27.258 77.056 27.258C77.364 27.258 77.7141 27.58 78.106 28.224C78.498 28.84 78.694 29.33 78.694 29.694C78.694 30.338 77.952 30.898 76.468 31.374C75.012 31.85 73.486 32.088 71.89 32.088Z" fill="#348CBE"/>
  <path d="M89.5448 32.088C88.0048 32.088 86.6748 31.626 85.5548 30.702C84.4628 29.75 83.9168 28.182 83.9168 25.998V13.398H82.2368C81.9008 13.398 81.6488 13.286 81.4808 13.062C81.3408 12.81 81.2708 12.418 81.2708 11.886V11.34C81.2708 10.808 81.3408 10.43 81.4808 10.206C81.6488 9.954 81.9008 9.828 82.2368 9.828H83.9168L84.4628 5.544C84.5468 4.844 85.0788 4.494 86.0588 4.494H86.7308C87.7388 4.494 88.2428 4.844 88.2428 5.544V9.828H91.3508C91.6868 9.828 91.9248 9.954 92.0648 10.206C92.2328 10.43 92.3168 10.808 92.3168 11.34V11.886C92.3168 12.418 92.2328 12.81 92.0648 13.062C91.9248 13.286 91.6868 13.398 91.3508 13.398H88.2428V25.788C88.2428 26.796 88.4108 27.51 88.7468 27.93C89.1108 28.322 89.6288 28.518 90.3008 28.518C90.6928 28.518 91.0148 28.49 91.2668 28.434C91.5468 28.35 91.7568 28.308 91.8968 28.308C92.1768 28.308 92.4148 28.616 92.6108 29.232C92.8068 29.82 92.9048 30.268 92.9048 30.576C92.9048 31.584 91.7848 32.088 89.5448 32.088Z" fill="#348CBE"/>
  <path d="M99.5323 31.878C98.2443 31.878 97.6003 31.528 97.6003 30.828V10.794C97.6003 10.094 98.2443 9.744 99.5323 9.744H99.9523C101.24 9.744 101.884 10.094 101.884 10.794V30.828C101.884 31.528 101.24 31.878 99.9523 31.878H99.5323ZM99.7843 7.056C98.3003 7.056 97.5583 6.706 97.5583 6.006V3.276C97.5583 2.576 98.3003 2.226 99.7843 2.226C101.24 2.226 101.968 2.576 101.968 3.276V6.006C101.968 6.706 101.24 7.056 99.7843 7.056Z" fill="#348CBE"/>
  <path d="M117.284 32.088C114.064 32.088 111.614 31.136 109.934 29.232C108.254 27.3 107.414 24.514 107.414 20.874C107.414 17.234 108.268 14.434 109.976 12.474C111.684 10.514 114.12 9.534 117.284 9.534C120.448 9.534 122.856 10.514 124.508 12.474C126.188 14.406 127.028 17.206 127.028 20.874C127.028 24.514 126.202 27.3 124.55 29.232C122.898 31.136 120.476 32.088 117.284 32.088ZM117.2 28.518C119.048 28.518 120.406 27.888 121.274 26.628C122.17 25.368 122.618 23.436 122.618 20.832C122.618 18.228 122.17 16.296 121.274 15.036C120.406 13.748 119.048 13.104 117.2 13.104C115.38 13.104 114.036 13.748 113.168 15.036C112.3 16.296 111.866 18.228 111.866 20.832C111.866 23.436 112.286 25.368 113.126 26.628C113.994 27.888 115.352 28.518 117.2 28.518Z" fill="#348CBE"/>
  <path d="M134.434 31.878C133.146 31.878 132.502 31.528 132.502 30.828V16.506C132.502 14.658 132.418 13.314 132.25 12.474C132.082 11.634 131.998 11.158 131.998 11.046C131.998 10.654 132.348 10.374 133.048 10.206C133.748 10.038 134.392 9.954 134.98 9.954C135.4 9.954 135.694 10.15 135.862 10.542C136.058 10.934 136.198 11.354 136.282 11.802C136.394 12.25 136.464 12.558 136.492 12.726C137.332 11.746 138.326 10.976 139.474 10.416C140.622 9.828 141.784 9.534 142.96 9.534C145.088 9.534 146.726 10.136 147.874 11.34C149.05 12.516 149.638 14.182 149.638 16.338V30.828C149.638 31.528 148.994 31.878 147.706 31.878H147.244C145.956 31.878 145.312 31.528 145.312 30.828V16.842C145.312 15.694 144.99 14.812 144.346 14.196C143.702 13.552 142.764 13.23 141.532 13.23C140.636 13.23 139.768 13.496 138.928 14.028C138.088 14.532 137.388 15.19 136.828 16.002V30.828C136.828 31.528 136.184 31.878 134.896 31.878H134.434Z" fill="#348CBE"/>
  <path d="M161.425 32.088C159.297 32.088 157.617 31.556 156.385 30.492C155.153 29.4 154.537 27.846 154.537 25.83C154.537 23.002 155.713 21.028 158.065 19.908C160.417 18.76 163.707 18.172 167.935 18.144V16.338C167.935 15.358 167.599 14.574 166.927 13.986C166.255 13.398 165.177 13.104 163.693 13.104C162.545 13.104 161.537 13.244 160.669 13.524C159.829 13.776 159.101 14.056 158.485 14.364C157.897 14.644 157.561 14.784 157.477 14.784C157.169 14.784 156.805 14.462 156.385 13.818C155.993 13.146 155.797 12.642 155.797 12.306C155.797 11.914 156.161 11.508 156.889 11.088C157.645 10.64 158.625 10.276 159.829 9.996C161.061 9.688 162.363 9.534 163.735 9.534C166.507 9.534 168.607 10.136 170.035 11.34C171.491 12.516 172.219 14.154 172.219 16.254V25.242C172.219 27.118 172.303 28.476 172.471 29.316C172.639 30.156 172.723 30.632 172.723 30.744C172.723 31.136 172.373 31.416 171.673 31.584C171.001 31.752 170.371 31.836 169.783 31.836C169.335 31.836 169.013 31.626 168.817 31.206C168.649 30.786 168.509 30.338 168.397 29.862C168.313 29.386 168.257 29.064 168.229 28.896C167.473 29.792 166.521 30.548 165.373 31.164C164.253 31.78 162.937 32.088 161.425 32.088ZM162.139 28.476C163.371 28.476 164.449 28.224 165.373 27.72C166.297 27.216 167.151 26.53 167.935 25.662V21.462C165.219 21.462 163.049 21.728 161.425 22.26C159.801 22.764 158.989 23.842 158.989 25.494C158.989 26.446 159.255 27.188 159.787 27.72C160.347 28.224 161.131 28.476 162.139 28.476Z" fill="#348CBE"/>
  <path d="M184.269 32.088C182.729 32.088 181.413 31.626 180.321 30.702C179.229 29.75 178.683 28.182 178.683 25.998V1.218C178.683 0.518 179.313 0.168 180.573 0.168H181.035C182.323 0.168 182.967 0.518 182.967 1.218V25.788C182.967 26.796 183.149 27.51 183.513 27.93C183.877 28.322 184.381 28.518 185.025 28.518C185.417 28.518 185.739 28.49 185.991 28.434C186.271 28.35 186.481 28.308 186.621 28.308C186.901 28.308 187.139 28.616 187.335 29.232C187.531 29.82 187.629 30.268 187.629 30.576C187.629 31.584 186.509 32.088 184.269 32.088Z" fill="#348CBE"/>
  <path d="M203.794 32.088C199.146 32.088 195.716 30.87 193.504 28.434C191.292 25.998 190.186 22.204 190.186 17.052C190.186 7.08397 194.75 2.09997 203.878 2.09997C205.25 2.09997 206.594 2.25397 207.91 2.56197C209.254 2.84197 210.318 3.20597 211.102 3.65397C211.802 4.07397 212.152 4.46597 212.152 4.82997C212.152 5.27797 211.928 5.86597 211.48 6.59397C211.06 7.32197 210.682 7.68597 210.346 7.68597C210.262 7.68597 209.912 7.53197 209.296 7.22397C208.68 6.91597 207.924 6.63597 207.028 6.38397C206.132 6.13197 205.096 6.00597 203.92 6.00597C200.812 6.00597 198.516 6.90197 197.032 8.69397C195.548 10.458 194.806 13.258 194.806 17.094C194.806 20.874 195.534 23.674 196.99 25.494C198.474 27.314 200.742 28.224 203.794 28.224C205.138 28.224 206.3 28.07 207.28 27.762C208.26 27.426 209.198 27.034 210.094 26.586C210.486 26.362 210.752 26.25 210.892 26.25C211.144 26.25 211.396 26.432 211.648 26.796C211.928 27.132 212.166 27.524 212.362 27.972C212.558 28.392 212.656 28.7 212.656 28.896C212.656 29.456 212.194 29.974 211.27 30.45C210.43 30.926 209.324 31.318 207.952 31.626C206.58 31.934 205.194 32.088 203.794 32.088Z" fill="#FEE577"/>
  <path d="M225.934 32.088C222.714 32.088 220.264 31.136 218.584 29.232C216.904 27.3 216.064 24.514 216.064 20.874C216.064 17.234 216.918 14.434 218.626 12.474C220.334 10.514 222.77 9.53397 225.934 9.53397C229.098 9.53397 231.506 10.514 233.158 12.474C234.838 14.406 235.678 17.206 235.678 20.874C235.678 24.514 234.852 27.3 233.2 29.232C231.548 31.136 229.126 32.088 225.934 32.088ZM225.85 28.518C227.698 28.518 229.056 27.888 229.924 26.628C230.82 25.368 231.268 23.436 231.268 20.832C231.268 18.228 230.82 16.296 229.924 15.036C229.056 13.748 227.698 13.104 225.85 13.104C224.03 13.104 222.686 13.748 221.818 15.036C220.95 16.296 220.516 18.228 220.516 20.832C220.516 23.436 220.936 25.368 221.776 26.628C222.644 27.888 224.002 28.518 225.85 28.518Z" fill="#FEE577"/>
  <path d="M247.956 32.088C246.36 32.088 244.946 31.626 243.714 30.702C242.51 29.75 241.572 28.42 240.9 26.712C240.228 25.004 239.892 23.044 239.892 20.832C239.892 18.48 240.242 16.464 240.942 14.784C241.67 13.076 242.678 11.774 243.966 10.878C245.254 9.98197 246.766 9.53397 248.502 9.53397C249.622 9.53397 250.616 9.70197 251.484 10.038C252.38 10.374 253.234 10.85 254.046 11.466V1.21797C254.046 0.517968 254.676 0.167969 255.936 0.167969H256.398C257.686 0.167969 258.33 0.517968 258.33 1.21797V25.242C258.33 27.118 258.414 28.476 258.582 29.316C258.75 30.156 258.834 30.632 258.834 30.744C258.834 31.136 258.484 31.416 257.784 31.584C257.084 31.752 256.44 31.836 255.852 31.836C255.432 31.836 255.124 31.626 254.928 31.206C254.76 30.786 254.62 30.352 254.508 29.904C254.424 29.428 254.368 29.106 254.34 28.938C252.492 31.038 250.364 32.088 247.956 32.088ZM249.006 28.434C249.874 28.434 250.742 28.196 251.61 27.72C252.478 27.216 253.29 26.53 254.046 25.662V14.742C252.702 13.706 251.19 13.188 249.51 13.188C247.802 13.188 246.514 13.818 245.646 15.078C244.778 16.338 244.344 18.172 244.344 20.58C244.344 23.1 244.736 25.046 245.52 26.418C246.332 27.762 247.494 28.434 249.006 28.434Z" fill="#FEE577"/>
  <path d="M274.224 32.088C267.224 32.088 263.724 28.378 263.724 20.958C263.724 17.178 264.578 14.336 266.286 12.432C267.994 10.5 270.444 9.53397 273.636 9.53397C276.576 9.53397 278.774 10.486 280.23 12.39C281.686 14.294 282.414 16.996 282.414 20.496C282.414 20.776 282.204 21.168 281.784 21.672C281.392 22.176 281.07 22.428 280.818 22.428H268.26C268.428 24.556 269.002 26.11 269.982 27.09C270.962 28.042 272.39 28.518 274.266 28.518C275.33 28.518 276.254 28.392 277.038 28.14C277.85 27.888 278.536 27.622 279.096 27.342C279.684 27.034 280.02 26.88 280.104 26.88C280.412 26.88 280.762 27.202 281.154 27.846C281.574 28.49 281.784 28.966 281.784 29.274C281.784 29.722 281.406 30.17 280.65 30.618C279.922 31.038 278.97 31.388 277.794 31.668C276.618 31.948 275.428 32.088 274.224 32.088ZM278.004 19.068C278.004 17.136 277.626 15.666 276.87 14.658C276.142 13.622 275.036 13.104 273.552 13.104C270.388 13.104 268.624 15.092 268.26 19.068H278.004Z" fill="#FEE577"/>
</svg>
